<svg width="272" height="97" viewBox="0 0 272 97" fill="none" xmlns="http://www.w3.org/2000/svg">
<path d="M30.0036 96.9606C21.8992 96.6384 15.2685 94.4194 10.0838 90.2979C9.09436 89.5106 6.73657 87.1499 5.94555 86.1543C3.84311 83.509 2.41372 80.9345 1.46033 78.0781C-1.47338 69.2853 0.0364975 57.7472 5.77902 45.0844C10.6958 34.2434 18.2827 23.4913 31.5191 8.59974C33.4689 6.40847 39.2752 0 39.3127 0C39.3266 0 39.0101 0.548503 38.6119 1.21644C35.1702 6.98476 32.2254 13.7793 30.6212 19.6615C28.0441 29.1 28.355 37.1998 31.5315 43.4805C33.7228 47.8075 37.4795 51.5554 41.7038 53.6272C49.0991 57.2529 59.9264 57.5528 73.1489 54.5048C74.0592 54.2937 119.17 42.3113 173.395 27.8766C227.62 13.4404 271.993 1.63857 272 1.64829C272.015 1.66081 146.02 55.6088 80.6136 83.5964C70.2554 88.0275 67.4855 89.1468 62.6158 90.8576C50.1677 95.2317 39.0171 97.3188 30.0036 96.9606Z" fill="white"/>
</svg>
