<svg width="447" height="344" viewBox="0 0 447 344" fill="none" xmlns="http://www.w3.org/2000/svg">
<path d="M223.441 339.583C412.569 306.207 492.313 142.616 420.748 38.5128C387.37 -10.0397 335.097 -1.02592 223.441 5.66078C111.784 12.3475 0.811311 31.1004 0.809509 177.038C0.807707 322.976 136.54 354.918 223.441 339.583Z" fill="url(#paint0_radial_1_299)"/>
<path d="M223.441 339.583C412.569 306.207 492.313 142.616 420.748 38.5128C387.37 -10.0397 335.097 -1.02592 223.441 5.66078C111.784 12.3475 0.811311 31.1004 0.809509 177.038C0.807707 322.976 136.54 354.918 223.441 339.583Z" fill="url(#paint1_linear_1_299)"/>
<defs>
<radialGradient id="paint0_radial_1_299" cx="0" cy="0" r="1" gradientUnits="userSpaceOnUse" gradientTransform="translate(108.581 51.5964) rotate(69.3339) scale(215.266 259.286)">
<stop stop-color="#B850C1"/>
<stop offset="1" stop-color="#DCADE0" stop-opacity="0"/>
</radialGradient>
<linearGradient id="paint1_linear_1_299" x1="238" y1="-4.22224e-06" x2="236" y2="67" gradientUnits="userSpaceOnUse">
<stop stop-color="#B850C1"/>
<stop offset="1" stop-color="#DCADE0" stop-opacity="0"/>
</linearGradient>
</defs>
</svg>
