<?xml version="1.0" encoding="UTF-8"?>
<svg id="_レイヤー_2" data-name="レイヤー 2" xmlns="http://www.w3.org/2000/svg" version="1.1" viewBox="0 0 1462.9 574.8">
  <defs>
    <style>
      .cls-1 {
        fill: #000;
        stroke-width: 0px;
      }
    </style>
  </defs>
  <path class="cls-1" d="M15.2,395.6c11.3-81.2,23.1-164.5,57.1-239.8,15.8-35.1,38.1-67.5,67.2-93,25.2-22.1,60.1-42.9,95-35.7s47.9,31.9,55.1,59.7c11,42.5,4.9,88.6-3.8,131-18.5,89.8-50.7,176.3-75.4,264.4-.5,1.7-7.4,21.9-4.5,23.1s14.3-20.3,15.7-22.8c9.4-17.7,16.7-36.3,25-54.5,16-35.1,31.5-70.3,48.8-104.8,18.2-36.4,37.6-73.4,63.8-104.8,10.3-12.3,21.2-24.8,34.4-34s24.8-13.2,33-1.6,7,21.3,7.1,31.6-1.4,28.9-3.6,43.1c-4.5,29.2-11.8,57.8-18.3,86.6s-17.2,78.9-22.7,118.9-5.2,35.7-4.4,53.5,0,12.8,5.4,8.8,8-10.9,10.8-15.8,6.6-12.4,9.4-18.8c5.3-12.6,9.4-25.6,13.3-38.6,24.1-80.3,45.4-161.9,78.5-239.2,15.1-35.3,32.7-69.5,55.1-100.7s23.2-31.4,38.2-43.6,15.5-13.7,22-7.8,3,11.1,2.5,15.9c-1.1,9.3-3.7,18.4-6.5,27.3-6.9,21.8-15.5,43-24.4,64.1-22.4,53.3-44,107.4-54.9,164.3-4,20.9-6.9,43.8-2.9,64.8,1.5,7.9,4.6,17.7,12.9,20.8s23.8-6.1,31.3-13.7c13.9-13.9,24.6-31.1,33.9-48.3s13-25.1,16.4-38.7,4-24.1-8.1-16.6c-13.2,8.2-22.5,25.8-30,38.7-9,15.6-16.9,32.1-21.8,49.4s-9,29.2,2.1,31.9c9.6,2.4,21.6-11.4,27.3-17.4,12-12.6,22.2-26.8,31.9-41.2,47-70.1,79.8-148.7,120.1-222.5,4.5-8.3,9.1-16.5,13.9-24.6s3.9-6.6,5.8-9.9-1.9,3,.2-.3,1.7-2.8,2.5-4.2,1.4-2.2,2.1-3.3c-1.5,2.4.9-1.4,1-1.5,1.4-2.1,2.6-4,3.5-5.2,2.1-3,4.5-6.9,7.6-9.1,8.1-5.6,2.3,15.2,1.7,17.6-4.4,17.8-10.4,35.1-16.2,52.4s-12.6,37.9-16.4,57.4c-2.9,15-8,37,1.9,50.4,4.1,5.6,10.4,8.9,17.2,9.8,6.9.9,13.5-1.2,20.3-1.1s5.8,6.3,3.8,12c-3.3,9.1-6.8,18-10.3,27-6.9,18.1-13.7,36.6-17.4,55.7-2,10.8-6.2,34.1,8.4,38.6s14.1-2,19.8-5.6c8.4-5.2,16.1-11.5,23.2-18.4,13.9-13.5,25.8-28.9,37.3-44.5,12.3-16.7,24-33.6,35-51.1s11.5-18.7,16.9-28.3,10.4-15.2,11.6-22.9-3.3,2.8-3.2,2.6c-16.8,24.2-27.8,51.4-36.9,79.4-5,15.3-9.6,31.8-8.7,48.1.6,12.4,5.9,27.2,21.2,23.5s22.7-13.4,30.8-22.6c13.6-15.7,24.3-34.2,33.7-52.6s16.3-36.4,22.9-55.3c2.4-6.9,4.4-13.9,6.6-20.9s2.5-7,3.8-10.6c2.1-6.1.8,8.6-5.8,9.2,1.8-.2,1.8-2.1,4.4-1.3,5.4,1.8,6.4,13.2,7.3,17.6,2.1,10.5,3,21.1,2.8,31.9-.3,20.3-3.5,40.5-8.1,60.2-1.3,5.4-5.3,14.7-3.7,20.4s7.7-2.2,9.6-4.2c5.7-5.9,11.4-11.9,17.2-17.9s14.9-15,23-21.8,14.2-12.4,22.7-13.4c23.9-2.9,2.6,56-.6,64-4.6,11.2,4.9-5.9,6.8-9.2s2.1-3.7,3.3-5.6c5.2-8.3,10.8-16.3,16.7-24.1s9.4-12.1,14.6-17.7,9.8-11.3,15.8-10.4,7.2,10,8.3,14.9c1.6,7.4,2.7,15,4,22.5,2.3,13,4.8,29,15.1,38.4,9.6,8.8,24,5.4,34.8.8s27.2-16.7,38.3-27.8,20.9-23.1,29.7-36,9.9-15.4,14.2-23.5,10.7-19.7,12-30.5-.4-12.9-7.8-11.3-11,6-15,9.9c-13.7,13.2-24.6,29.7-34.2,46.1-17.7,30-31.7,62.6-40,96.5-7.2,29.2-10.9,60-7.7,90.1,3,27.4,12.6,56.8,35.9,73.6,30.7,22.2,71.9,7.5,100.3-10.8,31.5-20.3,56.6-49.2,76.8-80.5,41.8-64.5,63.4-137.3,74.7-212.8s4.8-35.1,6.7-52.8-6.4,7.4-6.8,8.2c-2.8,4.6-7.7,11-8.3,16.5-4.4,41.1-10.2,82.1-20.2,122.2-9.3,37.3-21.6,75.8-43.2,108-22.9,34.1-55.9,66.1-95,80.6-18.7,7-39.7,9.3-58.6,1.6-15.2-6.2-26.7-18.9-34.3-33.3-15.8-29.9-16.1-66.4-12-99.2,4.3-34.6,14.3-69.1,30.5-100s18.2-29.3,31.8-36.4c10.5-5.5,12.5,4.5,10.2,13.2s-3.4,8.5-8.5,15.1c-10.8,14-23.3,27-37.6,37.3-11.6,8.4-30,19-45,13.6s-18.4-24.4-20.9-37.3-2.7-16.5-4.3-24.7-2-17-9-18.1-11.7,5.4-15.2,9c-5.9,5.9-11.2,12.4-16.3,19-13.7,17.7-26.4,36.4-37.4,55.9-3,5.4-6.1,10.8-8.7,16.5s-3.3,6-3.2,9.1v.7c2.6.9,8.6-10.6,9.4-12,4.9-8,9.1-16.3,12.7-25,5.5-13.4,9.9-27.6,12.1-41.9,1.5-9.8,3.4-32.6-13-27.4-14.4,4.5-26.7,17.9-37,28.2-2.8,2.8-28.2,32.3-31.5,30.5s0-8.6.4-10.4c1.6-7.8,3.7-15.5,5.3-23.4,3.1-15.6,5.2-31.6,5.4-47.5.2-14.3-.8-30-5.5-43.6s-3.4-8.6-7.7-7.4-8.7,9.5-11,13.1c-15,23.6-21,50.5-30.8,76.3-8.8,23.3-20.2,47-42.2,60.5s-23.2,7.2-28.2-5.7c-5-12.9-1.9-29,1.2-41.9,3.4-14.5,8.7-28.5,14.4-42.2s5.3-12.6,6.9-15.9c-.4.9-1.7,2.2-.2.5s-.7,1.3.8-1.5.8-1.6,1.3-2.3c.4-.7.8-1.4,1.1-2.1-1.8,3.4-3.8,6.6-6.1,9.7l-3.2,2.6c1.3-8.5,3.6-7.9.9-3.2s-2.6,4.5-3.9,6.7c-2.4,4.2-5,8.3-7.5,12.4-5.7,9.1-11.5,18.2-17.9,26.9-11.2,15.3-22.2,30.9-34.9,44.9-6.4,7-13.2,13.6-20.7,19.5s-15.1,12.2-23.7,13.3c-18.3,2.2-16.8-21.8-15-33.4,3-18.9,9.6-37,16.4-54.8,3.2-8.5,6.5-16.9,9.7-25.3s7-13.9,3.8-18.3-10.1-1.4-13.8-1c-7.4.8-15,.7-21.7-3.1-15.6-8.9-13.2-28.9-11.1-44.1,5.2-38.3,21.7-73.6,31.7-110.6,1.9-7,4-14.1,5-21.3s1.6-8.3-.8-9.6c-4.3-2.5-13,11.1-14.8,13.7-18.3,24.6-33,52.3-47.6,79.2-20.5,37.7-39.6,76.1-58.9,114.4-16.1,31.8-32.2,63.9-53,93s-17.7,23.8-29.1,33-8.6,7.1-13.6,7.2-7.9-7.4-7.6-12.8c.9-13.7,6-28.9,12.7-40.9s15.1-22,21-14.8.8,9.3.1,12.7c-1,4.9-3.3,11.6-4.6,14.4-5.4,12.4-14.2,23.6-24.9,31.9s-19.5,11.4-27.9,3.2-8.1-17.2-8.8-25.9c-1.7-21.3,1.6-43,5.9-63.8,11.6-56.1,34.2-108.7,55.4-160.1s17.2-42.3,23.6-64.2,4.7-16.7,5.3-25.3.8-11.2-2.9-14.5c-5.9-5.3-15.5,2.5-20,5.8-14.4,10.7-26,25-36.8,39.1-25.4,33.2-46.9,69.3-65.6,106.6-36.6,73.2-60.7,151.5-83.7,229.7-9.2,31.3-16.5,64.1-29.5,94.2s-2.2,4-.1.5l5.7-9.2c.3-.5.7-.9,1.1-1.4,0,0-.6.6-.6.5s-1.2-.3-1.5-.7c-.8-1-1-2.6-1.2-3.8-2.4-14,.7-30.4,2.3-44.3,5-42.4,14-84,23-125.7,5.9-27.4,13-54.5,17.9-82.1,4.3-24.4,9.6-52.5,2.6-76.9s-41.7-7.6-56.2,6.9c-27.7,27.9-49.3,61.4-69,95.3-21.4,36.9-40.4,75-58.4,113.6s-24.1,52.7-35.8,79.2c-2,4.6-4,9.2-6.1,13.7s-1.7,3.7-2.5,5.6-2.4,5.1-2.5,5.4c-.4.9-.9,1.8-1.3,2.7-1.4,2.9,1.5-2.7,0,0s2.7-4.6,2.3-3.9,4.1-5.3,4.4-6.2c0,.1,0-3.1.2-4.2,2.6-15.3,8-30.5,12.4-45.4,6.4-21.7,13-43.2,19.7-64.8,13.2-43,26.6-86.1,37.9-129.6,10.9-42.4,20.5-86.4,19.2-130.4-.9-31.7-6.7-68-32.2-89.8-22.8-19.6-53.5-18.4-79.8-7-34.7,15-62.1,42.8-84.5,72.5C64,146.8,35.2,225.1,18.7,305.4,10.9,343.4,5.3,381.8,0,420.2s6.3-7.3,6.8-8.2c2.9-4.7,7.5-10.9,8.3-16.5h0Z"/>
</svg>